<svg width="280" height="280" viewBox="0 0 280 280" fill="none" xmlns="http://www.w3.org/2000/svg">
<path fill-rule="evenodd" clip-rule="evenodd" d="M140 280C217.32 280 280 217.32 280 140C280 62.6801 217.32 0 140 0C62.6801 0 0 62.6801 0 140C0 217.32 62.6801 280 140 280ZM140 240C195.228 240 240 195.228 240 140C240 84.7715 195.228 40 140 40C84.7715 40 40 84.7715 40 140C40 195.228 84.7715 240 140 240Z" fill="#20015D"/>
<path d="M259.93 211H209.207L178.719 160.551C176.44 156.723 174.253 153.305 172.156 150.297C170.06 147.289 167.918 144.737 165.73 142.641C163.634 140.453 161.401 138.812 159.031 137.719C156.753 136.534 154.246 135.941 151.512 135.941H139.617V211H95.457V14.9453H165.457C213.035 14.9453 236.824 32.7188 236.824 68.2656C236.824 75.1016 235.776 81.4362 233.68 87.2695C231.583 93.0117 228.621 98.207 224.793 102.855C220.965 107.504 216.316 111.514 210.848 114.887C205.47 118.259 199.454 120.902 192.801 122.816V123.363C195.717 124.275 198.543 125.779 201.277 127.875C204.012 129.88 206.655 132.25 209.207 134.984C211.759 137.719 214.174 140.681 216.453 143.871C218.823 146.97 220.965 150.023 222.879 153.031L259.93 211ZM139.617 48.0312V102.582H158.758C168.237 102.582 175.848 99.8477 181.59 94.3789C187.423 88.819 190.34 81.9375 190.34 73.7344C190.34 56.599 180.086 48.0312 159.578 48.0312H139.617Z" fill="#20015D"/>
<rect x="95" y="35" width="45" height="234" fill="#20015D"/>
</svg>
