<svg width="14" height="13" viewBox="0 0 14 13" fill="none" xmlns="http://www.w3.org/2000/svg">
<path d="M10 0.5C11.7776 0.500169 13.166 1.88384 13.166 3.66699C13.1659 4.75916 12.6782 5.79256 11.7168 6.96875C10.7498 8.15177 9.35733 9.41785 7.63086 10.9834H7.62988L6.99902 11.5566L6.36914 10.9834L5.1377 9.86133C3.97242 8.78952 3.0074 7.85595 2.28223 6.96875C1.32089 5.7926 0.833105 4.75913 0.833008 3.66699C0.833008 1.88373 2.22221 0.5 4 0.5C5.0086 0.500102 5.98499 0.972085 6.62012 1.71191L7 2.1543L7.37891 1.71191C8.0141 0.971913 8.99121 0.5 10 0.5Z" stroke="currentColor"/>
</svg>
