<svg width="12" height="12" viewBox="0 0 12 12" fill="none" xmlns="http://www.w3.org/2000/svg">
<path fill-rule="evenodd" clip-rule="evenodd" d="M1.0613 8.20267C-0.437363 4.52467 2.26864 0.5 6.23997 0.5H6.45397C7.88037 0.500353 9.24825 1.06715 10.2569 2.07577C11.2655 3.08438 11.8323 4.45226 11.8326 5.87867C11.8328 6.66507 11.678 7.44381 11.3772 8.17038C11.0763 8.89696 10.6353 9.55714 10.0792 10.1132C9.52311 10.6693 8.86293 11.1104 8.13635 11.4112C7.40978 11.7121 6.63104 11.8668 5.84464 11.8667H0.631303C0.527717 11.8668 0.426659 11.8347 0.342094 11.7749C0.25753 11.715 0.193633 11.6304 0.159234 11.5327C0.124835 11.435 0.121632 11.329 0.150067 11.2294C0.178502 11.1298 0.237172 11.0415 0.31797 10.9767L1.63197 9.92133C1.66006 9.89883 1.68012 9.86783 1.68913 9.83298C1.69814 9.79813 1.69563 9.7613 1.68197 9.728L1.0613 8.20267ZM6.23997 1.5C2.97797 1.5 0.75597 4.80467 1.98664 7.82533L2.60797 9.35133C2.70264 9.58396 2.71971 9.84092 2.65665 10.084C2.5936 10.3271 2.45377 10.5434 2.25797 10.7007L2.05197 10.8667H5.84464C6.49972 10.8668 7.14842 10.7379 7.75367 10.4873C8.35892 10.2367 8.90886 9.86932 9.37208 9.40611C9.83529 8.94289 10.2027 8.39295 10.4533 7.7877C10.7039 7.18245 10.8328 6.53375 10.8326 5.87867C10.8323 4.71748 10.3708 3.60395 9.54976 2.78287C8.72868 1.96179 7.61516 1.50035 6.45397 1.5H6.23997Z" fill="currentColor"/>
</svg>
